<svg width="24" height="18" viewBox="0 0 24 18" fill="none" xmlns="http://www.w3.org/2000/svg">
<path d="M9 6H5M16.7941 4.71794C17 5.68294 17 6.97559 17 9C17 11.024 17 12.3166 16.7942 13.2815M16.7941 4.71794C16.7152 4.3481 16.606 4.02638 16.455 3.73005C15.9757 2.78924 15.2108 2.02433 14.27 1.54497C13.2004 1 11.8003 1 9 1C6.19974 1 4.79961 1 3.73005 1.54497C2.78924 2.02433 2.02433 2.78924 1.54497 3.73005C1 4.79961 1 6.19974 1 9C1 11.8003 1 13.2004 1.54497 14.27C2.02433 15.2108 2.78924 15.9757 3.73005 16.455C4.79961 17 6.19974 17 9 17C11.8003 17 13.2004 17 14.27 16.455C15.2108 15.9757 15.9757 15.2108 16.455 14.27C16.6061 13.9735 16.7153 13.6516 16.7942 13.2815M16.7941 4.71794L17 4.62176L17.3984 4.44768C19.9262 3.34311 21.1902 2.79083 22.0951 3.38296C23 3.97508 23 5.3544 23 8.11304V9.88696C23 12.6456 23 14.0249 22.0951 14.617C21.1902 15.2092 19.9262 14.6569 17.3984 13.5523L17 13.3782L16.7942 13.2815" stroke="#2D264B" stroke-width="1.5" stroke-linecap="round"/>
</svg>
