<svg width="22" height="22" viewBox="0 0 22 22" fill="none" xmlns="http://www.w3.org/2000/svg">
<path d="M11 1C16.5229 1 21 5.47733 21 11.0005C21 16.5227 16.5229 21 11 21C5.4771 21 1 16.5227 1 11.0005C1 5.47733 5.4771 1 11 1ZM11 2.49978C9.87603 2.48758 8.76081 2.69845 7.71887 3.12015C6.67694 3.54186 5.72898 4.16604 4.92987 4.95657C4.13077 5.7471 3.49637 6.68828 3.06341 7.72563C2.63045 8.76298 2.40751 9.87591 2.40751 11C2.40751 12.1241 2.63045 13.237 3.06341 14.2744C3.49637 15.3117 4.13077 16.2529 4.92987 17.0434C5.72898 17.834 6.67694 18.4581 7.71887 18.8798C8.76081 19.3016 9.87603 19.5124 11 19.5002C13.2316 19.466 15.3602 18.5554 16.9262 16.9651C18.4922 15.3749 19.3699 13.2325 19.3699 11.0005C19.3699 8.76855 18.4922 6.62614 16.9262 5.03585C15.3602 3.44557 13.2316 2.53501 11 2.50077V2.49978ZM7.46271 13.7831C7.88337 14.319 8.42047 14.7522 9.03332 15.0498C9.64618 15.3474 10.3187 15.5016 11 15.5008C11.6804 15.5016 12.3522 15.3477 12.9644 15.0508C13.5767 14.754 14.1135 14.3218 14.5343 13.7871C14.6576 13.631 14.8378 13.5303 15.0354 13.5072C15.2329 13.484 15.4315 13.5403 15.5876 13.6636C15.7436 13.7869 15.8443 13.9672 15.8675 14.1647C15.8906 14.3622 15.8344 14.5609 15.7111 14.7169C15.1499 15.4294 14.4343 16.0052 13.6182 16.4008C12.8021 16.7963 11.9069 17.0014 11 17.0006C10.0919 17.0013 9.19559 16.7956 8.37874 16.3989C7.56188 16.0023 6.84591 15.4251 6.28494 14.7109C6.16716 14.5543 6.11537 14.3578 6.14065 14.1635C6.16593 13.9692 6.26628 13.7924 6.42021 13.6712C6.57414 13.5499 6.76943 13.4937 6.96427 13.5146C7.15911 13.5355 7.33802 13.6319 7.46271 13.7831V13.7831ZM8.0006 7.74999C8.16763 7.74526 8.33391 7.77408 8.4896 7.83474C8.6453 7.8954 8.78725 7.98666 8.90706 8.10314C9.02688 8.21962 9.12212 8.35894 9.18715 8.51286C9.25219 8.66679 9.28569 8.8322 9.28569 8.9993C9.28569 9.1664 9.25219 9.33181 9.18715 9.48574C9.12212 9.63966 9.02688 9.77898 8.90706 9.89546C8.78725 10.0119 8.6453 10.1032 8.4896 10.1639C8.33391 10.2245 8.16763 10.2533 8.0006 10.2486C7.6754 10.2394 7.3666 10.1038 7.13983 9.87047C6.91306 9.63718 6.78619 9.32465 6.78619 8.9993C6.78619 8.67395 6.91306 8.36142 7.13983 8.12814C7.3666 7.89485 7.6754 7.75919 8.0006 7.74999ZM13.9994 7.74999C14.1664 7.74526 14.3327 7.77408 14.4884 7.83474C14.6441 7.8954 14.7861 7.98666 14.9059 8.10314C15.0257 8.21962 15.1209 8.35894 15.186 8.51286C15.251 8.66679 15.2845 8.8322 15.2845 8.9993C15.2845 9.1664 15.251 9.33181 15.186 9.48574C15.1209 9.63966 15.0257 9.77898 14.9059 9.89546C14.7861 10.0119 14.6441 10.1032 14.4884 10.1639C14.3327 10.2245 14.1664 10.2533 13.9994 10.2486C13.6742 10.2394 13.3654 10.1038 13.1386 9.87047C12.9119 9.63718 12.785 9.32465 12.785 8.9993C12.785 8.67395 12.9119 8.36142 13.1386 8.12814C13.3654 7.89485 13.6742 7.75919 13.9994 7.74999V7.74999Z" fill="#191D1E" fill-opacity="0.75" stroke="black" stroke-width="0.2"/>
</svg>
