<svg width="24" height="23" viewBox="0 0 24 23" fill="none" xmlns="http://www.w3.org/2000/svg">
<path d="M19.1935 17.4698C18.9006 17.1769 18.4257 17.1769 18.1328 17.4698C17.8399 17.7626 17.8399 18.2375 18.1328 18.5304L19.1935 17.4698ZM22.1327 22.5304C22.4256 22.8233 22.9005 22.8233 23.1934 22.5304C23.4863 22.2375 23.4863 21.7626 23.1934 21.4697L22.1327 22.5304ZM18.1328 18.5304L22.1327 22.5304L23.1934 21.4697L19.1935 17.4698L18.1328 18.5304ZM10.6631 18.25C6.10674 18.25 2.41309 14.5563 2.41309 10H0.913086C0.913086 15.3848 5.27831 19.75 10.6631 19.75V18.25ZM18.9131 10C18.9131 14.5563 15.2194 18.25 10.6631 18.25V19.75C16.0479 19.75 20.4131 15.3848 20.4131 10H18.9131ZM10.6631 1.75C15.2194 1.75 18.9131 5.44365 18.9131 10H20.4131C20.4131 4.61522 16.0479 0.25 10.6631 0.25V1.75ZM10.6631 0.25C5.27831 0.25 0.913086 4.61522 0.913086 10H2.41309C2.41309 5.44365 6.10674 1.75 10.6631 1.75V0.25Z" fill="#191D1E"/>
</svg>
