<svg width="26" height="24" viewBox="0 0 26 24" fill="none" xmlns="http://www.w3.org/2000/svg">
<path d="M12.8335 7.99991C12.8335 7.5857 12.4977 7.24991 12.0835 7.24991C11.6693 7.24991 11.3335 7.5857 11.3335 7.99991H12.8335ZM11.3335 15.9999C11.3335 16.4141 11.6693 16.7499 12.0835 16.7499C12.4977 16.7499 12.8335 16.4141 12.8335 15.9999H11.3335ZM15.8335 8.99991C15.8335 8.5857 15.4977 8.24991 15.0835 8.24991C14.6693 8.24991 14.3335 8.5857 14.3335 8.99991H15.8335ZM14.3335 14.9999C14.3335 15.4141 14.6693 15.7499 15.0835 15.7499C15.4977 15.7499 15.8335 15.4141 15.8335 14.9999H14.3335ZM18.8335 10.9999C18.8335 10.5857 18.4977 10.2499 18.0835 10.2499C17.6693 10.2499 17.3335 10.5857 17.3335 10.9999H18.8335ZM17.3335 12.9999C17.3335 13.4141 17.6693 13.7499 18.0835 13.7499C18.4977 13.7499 18.8335 13.4141 18.8335 12.9999H17.3335ZM9.83349 8.99991C9.83349 8.5857 9.49771 8.24991 9.08349 8.24991C8.66928 8.24991 8.33349 8.5857 8.33349 8.99991H9.83349ZM8.33349 14.9999C8.33349 15.4141 8.66928 15.7499 9.08349 15.7499C9.49771 15.7499 9.83349 15.4141 9.83349 14.9999H8.33349ZM6.83349 10.9999C6.83349 10.5857 6.49771 10.2499 6.08349 10.2499C5.66928 10.2499 5.33349 10.5857 5.33349 10.9999H6.83349ZM5.33349 12.9999C5.33349 13.4141 5.66928 13.7499 6.08349 13.7499C6.49771 13.7499 6.83349 13.4141 6.83349 12.9999H5.33349ZM16.9789 3.02486L17.3213 2.35755V2.35755L16.9789 3.02486ZM17.4084 3.2728L17.0016 3.90293L17.4084 3.2728ZM6.7586 3.2728L6.35185 2.64268L6.7586 3.2728ZM7.18804 3.02486L6.84571 2.35755V2.35755L7.18804 3.02486ZM1.86315 12.2478L2.61222 12.2107L1.86315 12.2478ZM1.86315 11.752L1.11407 11.7148L1.86315 11.752ZM7.18804 20.975L6.84571 21.6423H6.84571L7.18804 20.975ZM6.7586 20.727L7.16535 20.0969L6.7586 20.727ZM17.4084 20.727L17.8151 21.3571L17.4084 20.727ZM16.9789 20.975L17.3213 21.6423L16.9789 20.975ZM22.3038 12.2479L23.0529 12.285L22.3038 12.2479ZM22.3038 11.752L21.5548 11.7892L22.3038 11.752ZM11.3335 7.99991V15.9999H12.8335V7.99991H11.3335ZM14.3335 8.99991V14.9999H15.8335V8.99991H14.3335ZM17.3335 10.9999V12.9999H18.8335V10.9999H17.3335ZM8.33349 8.99991L8.33349 14.9999H9.83349L9.83349 8.99991H8.33349ZM5.33349 10.9999L5.33349 12.9999H6.83349L6.83349 10.9999H5.33349ZM12.0835 3.22363C13.3703 3.22363 14.2866 3.22432 15.0168 3.28956C15.7326 3.35352 16.2154 3.4761 16.6366 3.69218L17.3213 2.35755C16.668 2.0224 15.9767 1.86936 15.1502 1.79551C14.3381 1.72294 13.344 1.72363 12.0835 1.72363V3.22363ZM20.983 6.86177C20.3528 5.77015 19.8563 4.90888 19.3874 4.24182C18.9102 3.56301 18.432 3.04089 17.8151 2.64268L17.0016 3.90293C17.3994 4.15967 17.7469 4.51653 18.1602 5.10446C18.5818 5.70414 19.0406 6.49738 19.684 7.61177L20.983 6.86177ZM16.6366 3.69218C16.7617 3.75635 16.8835 3.82668 17.0016 3.90293L17.8151 2.64268C17.6553 2.53953 17.4905 2.44437 17.3213 2.35755L16.6366 3.69218ZM4.48301 7.61177C5.12641 6.49738 5.58518 5.70414 6.00674 5.10446C6.42004 4.51653 6.7676 4.15967 7.16535 3.90293L6.35185 2.64268C5.73495 3.04089 5.25678 3.56301 4.7796 4.24182C4.31068 4.90888 3.81422 5.77015 3.18397 6.86177L4.48301 7.61177ZM12.0835 1.72363C10.823 1.72363 9.82889 1.72294 9.01674 1.79551C8.19028 1.86936 7.49902 2.0224 6.84571 2.35755L7.53037 3.69218C7.95159 3.4761 8.43442 3.35352 9.15023 3.28956C9.88035 3.22432 10.7967 3.22363 12.0835 3.22363V1.72363ZM7.16535 3.90293C7.28346 3.82668 7.40528 3.75635 7.53037 3.69218L6.84571 2.35755C6.67648 2.44436 6.51165 2.53952 6.35185 2.64268L7.16535 3.90293ZM4.48301 16.3881C3.83962 15.2737 3.38204 14.4797 3.07348 13.8148C2.77096 13.1629 2.6357 12.6835 2.61222 12.2107L1.11407 12.285C1.15048 13.0184 1.36357 13.6936 1.71284 14.4462C2.05607 15.1859 2.55373 16.0464 3.18397 17.1381L4.48301 16.3881ZM3.18397 6.86177C2.55373 7.95339 2.05607 8.81397 1.71284 9.5536C1.36357 10.3063 1.15048 10.9814 1.11407 11.7148L2.61222 11.7892C2.6357 11.3163 2.77096 10.8369 3.07348 10.185C3.38204 9.52009 3.83962 8.72616 4.48301 7.61177L3.18397 6.86177ZM2.61222 12.2107C2.60525 12.0702 2.60525 11.9296 2.61222 11.7892L1.11407 11.7148C1.10464 11.9048 1.10464 12.0951 1.11407 12.285L2.61222 12.2107ZM12.0835 20.7762C10.7967 20.7762 9.88035 20.7755 9.15023 20.7103C8.43442 20.6463 7.95159 20.5237 7.53037 20.3076L6.84571 21.6423C7.49902 21.9774 8.19028 22.1305 9.01673 22.2043C9.82889 22.2769 10.823 22.2762 12.0835 22.2762V20.7762ZM3.18397 17.1381C3.81422 18.2297 4.31068 19.0909 4.7796 19.758C5.25678 20.4368 5.73495 20.9589 6.35185 21.3571L7.16535 20.0969C6.7676 19.8402 6.42003 19.4833 6.00673 18.8954C5.58518 18.2957 5.1264 17.5024 4.48301 16.3881L3.18397 17.1381ZM7.53037 20.3076C7.40529 20.2435 7.28346 20.1731 7.16535 20.0969L6.35185 21.3571C6.51165 21.4603 6.67647 21.5555 6.84571 21.6423L7.53037 20.3076ZM19.684 16.3881C19.0406 17.5024 18.5818 18.2957 18.1602 18.8954C17.7469 19.4833 17.3994 19.8402 17.0016 20.0969L17.8151 21.3571C18.432 20.9589 18.9102 20.4368 19.3874 19.758C19.8563 19.0909 20.3528 18.2297 20.983 17.1381L19.684 16.3881ZM12.0835 22.2762C13.344 22.2762 14.3381 22.2769 15.1502 22.2043C15.9767 22.1305 16.668 21.9774 17.3213 21.6423L16.6366 20.3076C16.2154 20.5237 15.7326 20.6463 15.0167 20.7103C14.2866 20.7755 13.3703 20.7762 12.0835 20.7762V22.2762ZM17.0016 20.0969C16.8835 20.1731 16.7617 20.2435 16.6366 20.3076L17.3213 21.6423C17.4905 21.5555 17.6553 21.4603 17.8151 21.3571L17.0016 20.0969ZM20.983 17.1381C21.6133 16.0464 22.1109 15.1859 22.4541 14.4462C22.8034 13.6936 23.0165 13.0184 23.0529 12.285L21.5548 12.2107C21.5313 12.6835 21.396 13.1629 21.0935 13.8148C20.7849 14.4797 20.3274 15.2737 19.684 16.3881L20.983 17.1381ZM19.684 7.61177C20.3274 8.72616 20.7849 9.52009 21.0935 10.185C21.396 10.8369 21.5313 11.3163 21.5548 11.7892L23.0529 11.7148C23.0165 10.9814 22.8034 10.3063 22.4541 9.5536C22.1109 8.81397 21.6133 7.95339 20.983 6.86177L19.684 7.61177ZM23.0529 12.285C23.0623 12.0951 23.0623 11.9048 23.0529 11.7148L21.5548 11.7892C21.5617 11.9296 21.5617 12.0702 21.5548 12.2107L23.0529 12.285Z" fill="#191D1E"/>
</svg>
