<svg width="26" height="24" viewBox="0 0 26 24" fill="none" xmlns="http://www.w3.org/2000/svg">
<path d="M8.22687 17.75C8.64108 17.75 8.97687 17.4142 8.97687 17C8.97687 16.5858 8.64108 16.25 8.22687 16.25V17.75ZM16.2269 16.25C15.8127 16.25 15.4769 16.5858 15.4769 17C15.4769 17.4142 15.8127 17.75 16.2269 17.75V16.25ZM16.2269 6.25C15.8127 6.25 15.4769 6.58579 15.4769 7C15.4769 7.41421 15.8127 7.75 16.2269 7.75V6.25ZM8.22687 7.75C8.64108 7.75 8.97687 7.41421 8.97687 7C8.97687 6.58579 8.64108 6.25 8.22687 6.25V7.75ZM8.22687 11.25C7.81265 11.25 7.47687 11.5858 7.47687 12C7.47687 12.4142 7.81265 12.75 8.22687 12.75V11.25ZM16.2269 12.75C16.6411 12.75 16.9769 12.4142 16.9769 12C16.9769 11.5858 16.6411 11.25 16.2269 11.25V12.75ZM8.22687 16.25C5.87966 16.25 3.97687 14.3472 3.97687 12H2.47687C2.47687 15.1756 5.05123 17.75 8.22687 17.75V16.25ZM20.4769 12C20.4769 14.3472 18.5741 16.25 16.2269 16.25V17.75C19.4025 17.75 21.9769 15.1756 21.9769 12H20.4769ZM16.2269 7.75C18.5741 7.75 20.4769 9.65279 20.4769 12H21.9769C21.9769 8.82436 19.4025 6.25 16.2269 6.25V7.75ZM8.22687 6.25C5.05123 6.25 2.47687 8.82436 2.47687 12H3.97687C3.97687 9.65279 5.87966 7.75 8.22687 7.75V6.25ZM8.22687 12.75H16.2269V11.25H8.22687V12.75Z" fill="#191D1E"/>
</svg>
