<svg width="26" height="24" viewBox="0 0 26 24" fill="none" xmlns="http://www.w3.org/2000/svg">
<path d="M9.5119 20.5L12.1846 15.7714C12.3143 15.5419 12.4282 15.3404 12.5301 15.1622M12.5301 15.1622C12.846 14.6097 13.0469 14.2806 13.2477 14.0336C14.9097 11.9885 17.8737 11.5845 20.0225 13.1101C20.3635 13.3522 20.7428 13.7309 21.4969 14.485M12.5301 15.1622L12.0119 15C10.8164 14.7609 10.2186 14.6413 9.66999 14.653C8.20175 14.6842 6.82146 15.3593 5.89544 16.4991C5.54941 16.925 5.27679 17.4702 4.73155 18.5607L4.62173 18.7804L4.50065 18.9849M21.4969 14.485C21.5119 13.7605 21.5119 12.939 21.5119 12C21.5119 8.25027 21.5119 6.3754 20.557 5.06107C20.2486 4.6366 19.8753 4.26331 19.4508 3.95491C18.1365 3 16.2616 3 12.5119 3C8.76217 3 6.8873 3 5.57298 3.95491C5.1485 4.26331 4.77521 4.6366 4.46682 5.06107C3.5119 6.3754 3.5119 8.25027 3.5119 12C3.5119 15.7497 3.5119 17.6246 4.46682 18.9389C4.47801 18.9543 4.48929 18.9697 4.50065 18.9849M21.4969 14.485C21.452 16.6536 21.2728 17.9537 20.557 18.9389C20.2486 19.3634 19.8753 19.7367 19.4508 20.0451C18.1365 21 16.2616 21 12.5119 21C8.76217 21 6.8873 21 5.57298 20.0451C5.16391 19.7479 4.80238 19.3904 4.50065 18.9849M9.5119 9C9.5119 10.1046 10.4073 11 11.5119 11C12.6165 11 13.5119 10.1046 13.5119 9C13.5119 7.89543 12.6165 7 11.5119 7C10.4073 7 9.5119 7.89543 9.5119 9Z" stroke="#191D1E" stroke-width="1.5" stroke-linecap="round"/>
</svg>
