<svg width="22" height="21" viewBox="0 0 22 21" fill="none" xmlns="http://www.w3.org/2000/svg">
<path d="M11.7499 6.33072C11.7499 5.91651 11.4141 5.58072 10.9999 5.58072C10.5857 5.58072 10.2499 5.91651 10.2499 6.33072H11.7499ZM10.2499 14.3307C10.2499 14.7449 10.5857 15.0807 10.9999 15.0807C11.4141 15.0807 11.7499 14.7449 11.7499 14.3307H10.2499ZM14.7499 7.33072C14.7499 6.91651 14.4141 6.58072 13.9999 6.58072C13.5857 6.58072 13.2499 6.91651 13.2499 7.33072H14.7499ZM13.2499 13.3307C13.2499 13.7449 13.5857 14.0807 13.9999 14.0807C14.4141 14.0807 14.7499 13.7449 14.7499 13.3307H13.2499ZM17.7499 9.33072C17.7499 8.91651 17.4141 8.58072 16.9999 8.58072C16.5857 8.58072 16.2499 8.91651 16.2499 9.33072H17.7499ZM16.2499 11.3307C16.2499 11.7449 16.5857 12.0807 16.9999 12.0807C17.4141 12.0807 17.7499 11.7449 17.7499 11.3307H16.2499ZM8.74994 7.33072C8.74994 6.91651 8.41415 6.58072 7.99994 6.58072C7.58572 6.58072 7.24994 6.91651 7.24994 7.33072H8.74994ZM7.24994 13.3307C7.24994 13.7449 7.58572 14.0807 7.99994 14.0807C8.41415 14.0807 8.74994 13.7449 8.74994 13.3307H7.24994ZM5.74994 9.33072C5.74994 8.91651 5.41415 8.58072 4.99994 8.58072C4.58572 8.58072 4.24994 8.91651 4.24994 9.33072H5.74994ZM4.24994 11.3307C4.24994 11.7449 4.58572 12.0807 4.99994 12.0807C5.41415 12.0807 5.74994 11.7449 5.74994 11.3307H4.24994ZM15.8954 1.35567L16.2377 0.68836V0.68836L15.8954 1.35567ZM16.3248 1.60361L15.9181 2.23374L16.3248 1.60361ZM5.67504 1.60361L5.2683 0.973487L5.67504 1.60361ZM6.10448 1.35567L5.76215 0.688359V0.688359L6.10448 1.35567ZM0.779589 10.5787L1.52867 10.5415L0.779589 10.5787ZM0.779589 10.0828L0.0305113 10.0456L0.779589 10.0828ZM6.10448 19.3058L5.76215 19.9731H5.76215L6.10448 19.3058ZM5.67504 19.0578L6.08179 18.4277L5.67504 19.0578ZM16.3248 19.0578L16.7316 19.688L16.3248 19.0578ZM15.8954 19.3058L16.2377 19.9731L15.8954 19.3058ZM21.2203 10.5787L21.9694 10.6159L21.2203 10.5787ZM21.2203 10.0828L20.4712 10.12L21.2203 10.0828ZM10.2499 6.33072V14.3307H11.7499V6.33072H10.2499ZM13.2499 7.33072V13.3307H14.7499V7.33072H13.2499ZM16.2499 9.33072V11.3307H17.7499V9.33072H16.2499ZM7.24994 7.33072L7.24994 13.3307H8.74994L8.74994 7.33072H7.24994ZM4.24994 9.33072L4.24994 11.3307H5.74994L5.74994 9.33072H4.24994ZM10.9999 1.55444C12.2867 1.55444 13.2031 1.55513 13.9332 1.62037C14.649 1.68433 15.1318 1.80691 15.5531 2.02299L16.2377 0.68836C15.5844 0.353212 14.8932 0.200171 14.0667 0.126324C13.2545 0.0537548 12.2604 0.0544434 10.9999 0.0544434V1.55444ZM19.8995 5.19258C19.2692 4.10096 18.7727 3.23969 18.3038 2.57263C17.8266 1.89382 17.3485 1.3717 16.7316 0.973488L15.9181 2.23374C16.3158 2.49048 16.6634 2.84734 17.0767 3.43527C17.4983 4.03496 17.957 4.82819 18.6004 5.94258L19.8995 5.19258ZM15.5531 2.02299C15.6781 2.08716 15.8 2.15749 15.9181 2.23374L16.7316 0.973488C16.5718 0.870336 16.407 0.775176 16.2377 0.68836L15.5531 2.02299ZM3.39945 5.94258C4.04285 4.82819 4.50162 4.03495 4.92318 3.43527C5.33648 2.84734 5.68405 2.49048 6.08179 2.23374L5.2683 0.973487C4.65139 1.3717 4.17323 1.89382 3.69604 2.57263C3.22712 3.23969 2.73066 4.10096 2.10042 5.19258L3.39945 5.94258ZM10.9999 0.0544434C9.73944 0.0544433 8.74533 0.0537546 7.93318 0.126323C7.10672 0.20017 6.41547 0.353211 5.76215 0.688359L6.44681 2.02299C6.86803 1.80691 7.35086 1.68433 8.06668 1.62037C8.7968 1.55513 9.71315 1.55444 10.9999 1.55444V0.0544434ZM6.08179 2.23374C6.1999 2.15749 6.32173 2.08716 6.44681 2.02299L5.76215 0.688359C5.59292 0.775175 5.4281 0.870335 5.2683 0.973487L6.08179 2.23374ZM3.39945 14.7189C2.75606 13.6045 2.29848 12.8105 1.98992 12.1456C1.6874 11.4937 1.55214 11.0143 1.52867 10.5415L0.0305112 10.6159C0.0669215 11.3492 0.280012 12.0244 0.629287 12.777C0.972517 13.5167 1.47017 14.3772 2.10042 15.4689L3.39945 14.7189ZM2.10042 5.19258C1.47017 6.2842 0.972517 7.14478 0.629287 7.88441C0.280012 8.63707 0.0669215 9.31223 0.0305113 10.0456L1.52867 10.12C1.55214 9.64715 1.6874 9.16772 1.98992 8.51582C2.29848 7.8509 2.75606 7.05697 3.39945 5.94258L2.10042 5.19258ZM1.52867 10.5415C1.52169 10.4011 1.52169 10.2604 1.52867 10.12L0.0305113 10.0456C0.0210796 10.2356 0.0210796 10.4259 0.0305112 10.6159L1.52867 10.5415ZM10.9999 19.107C9.71315 19.107 8.7968 19.1063 8.06668 19.0411C7.35086 18.9771 6.86803 18.8545 6.44681 18.6385L5.76215 19.9731C6.41546 20.3082 7.10672 20.4613 7.93318 20.5351C8.74533 20.6077 9.73944 20.607 10.9999 20.607V19.107ZM2.10042 15.4689C2.73066 16.5605 3.22712 17.4218 3.69604 18.0888C4.17323 18.7676 4.65139 19.2897 5.26829 19.688L6.08179 18.4277C5.68405 18.171 5.33648 17.8141 4.92318 17.2262C4.50162 16.6265 4.04285 15.8333 3.39945 14.7189L2.10042 15.4689ZM6.44681 18.6385C6.32173 18.5743 6.1999 18.504 6.08179 18.4277L5.26829 19.688C5.42809 19.7911 5.59292 19.8863 5.76215 19.9731L6.44681 18.6385ZM18.6004 14.7189C17.957 15.8333 17.4983 16.6265 17.0767 17.2262C16.6634 17.8141 16.3158 18.171 15.9181 18.4277L16.7316 19.688C17.3485 19.2897 17.8266 18.7676 18.3038 18.0888C18.7727 17.4218 19.2692 16.5605 19.8995 15.4689L18.6004 14.7189ZM10.9999 20.607C12.2604 20.607 13.2545 20.6077 14.0667 20.5351C14.8931 20.4613 15.5844 20.3082 16.2377 19.9731L15.5531 18.6385C15.1318 18.8545 14.649 18.9771 13.9332 19.0411C13.2031 19.1063 12.2867 19.107 10.9999 19.107V20.607ZM15.9181 18.4277C15.8 18.504 15.6781 18.5743 15.5531 18.6385L16.2377 19.9731C16.4069 19.8863 16.5718 19.7911 16.7316 19.688L15.9181 18.4277ZM19.8995 15.4689C20.5297 14.3772 21.0274 13.5167 21.3706 12.777C21.7199 12.0244 21.9329 11.3492 21.9694 10.6159L20.4712 10.5415C20.4477 11.0143 20.3125 11.4937 20.01 12.1456C19.7014 12.8105 19.2438 13.6045 18.6004 14.7189L19.8995 15.4689ZM18.6004 5.94258C19.2438 7.05697 19.7014 7.8509 20.01 8.51582C20.3125 9.16772 20.4477 9.64715 20.4712 10.12L21.9694 10.0456C21.9329 9.31223 21.7199 8.63707 21.3706 7.88441C21.0274 7.14478 20.5297 6.2842 19.8995 5.19258L18.6004 5.94258ZM21.9694 10.6159C21.9788 10.4259 21.9788 10.2356 21.9694 10.0456L20.4712 10.12C20.4782 10.2604 20.4782 10.4011 20.4712 10.5415L21.9694 10.6159Z" fill="#191D1E"/>
</svg>
