<svg width="20" height="13" viewBox="0 0 20 13" fill="none" xmlns="http://www.w3.org/2000/svg">
<path d="M6 12.0808C6.41421 12.0808 6.75 11.745 6.75 11.3308C6.75 10.9166 6.41421 10.5808 6 10.5808V12.0808ZM14 10.5808C13.5858 10.5808 13.25 10.9166 13.25 11.3308C13.25 11.745 13.5858 12.0808 14 12.0808V10.5808ZM14 0.580811C13.5858 0.580811 13.25 0.916597 13.25 1.33081C13.25 1.74502 13.5858 2.08081 14 2.08081V0.580811ZM6 2.08081C6.41421 2.08081 6.75 1.74502 6.75 1.33081C6.75 0.916597 6.41421 0.580811 6 0.580811V2.08081ZM6 5.58081C5.58579 5.58081 5.25 5.9166 5.25 6.33081C5.25 6.74502 5.58579 7.08081 6 7.08081V5.58081ZM14 7.08081C14.4142 7.08081 14.75 6.74502 14.75 6.33081C14.75 5.9166 14.4142 5.58081 14 5.58081V7.08081ZM6 10.5808C3.65279 10.5808 1.75 8.67802 1.75 6.33081H0.25C0.25 9.50645 2.82436 12.0808 6 12.0808V10.5808ZM18.25 6.33081C18.25 8.67802 16.3472 10.5808 14 10.5808V12.0808C17.1756 12.0808 19.75 9.50645 19.75 6.33081H18.25ZM14 2.08081C16.3472 2.08081 18.25 3.9836 18.25 6.33081H19.75C19.75 3.15517 17.1756 0.580811 14 0.580811V2.08081ZM6 0.580811C2.82436 0.580811 0.25 3.15517 0.25 6.33081H1.75C1.75 3.9836 3.65279 2.08081 6 2.08081V0.580811ZM6 7.08081H14V5.58081H6V7.08081Z" fill="#191D1E"/>
</svg>
