<svg width="20" height="21" viewBox="0 0 20 21" fill="none" xmlns="http://www.w3.org/2000/svg">
<path d="M7 18.8308L9.67269 14.1022C9.8024 13.8727 9.91628 13.6712 10.0182 13.493M10.0182 13.493C10.3341 12.9405 10.535 12.6114 10.7358 12.3644C12.3978 10.3193 15.3618 9.91529 17.5106 11.441C17.8516 11.6831 18.2309 12.0617 18.985 12.8158M10.0182 13.493L9.5 13.3308C8.30448 13.0917 7.70672 12.9722 7.15808 12.9838C5.68985 13.015 4.30956 13.6901 3.38354 14.8299C3.03751 15.2558 2.76489 15.801 2.21965 16.8915L2.10982 17.1112L1.98875 17.3157M18.985 12.8158C19 12.0913 19 11.2698 19 10.3308C19 6.58108 19 4.70621 18.0451 3.39188C17.7367 2.96741 17.3634 2.59412 16.9389 2.28573C15.6246 1.33081 13.7497 1.33081 10 1.33081C6.25027 1.33081 4.3754 1.33081 3.06107 2.28573C2.6366 2.59412 2.26331 2.96741 1.95491 3.39188C1 4.70621 1 6.58108 1 10.3308C1 14.0805 1 15.9554 1.95491 17.2697C1.96611 17.2851 1.97738 17.3005 1.98875 17.3157M18.985 12.8158C18.9401 14.9844 18.7609 16.2846 18.0451 17.2697C17.7367 17.6942 17.3634 18.0675 16.9389 18.3759C15.6246 19.3308 13.7497 19.3308 10 19.3308C6.25027 19.3308 4.3754 19.3308 3.06107 18.3759C2.652 18.0787 2.29047 17.7212 1.98875 17.3157M7 7.33081C7 8.43538 7.89543 9.33081 9 9.33081C10.1046 9.33081 11 8.43538 11 7.33081C11 6.22624 10.1046 5.33081 9 5.33081C7.89543 5.33081 7 6.22624 7 7.33081Z" stroke="#191D1E" stroke-width="1.5" stroke-linecap="round"/>
</svg>
