<svg width="17" height="23" viewBox="0 0 17 23" fill="none" xmlns="http://www.w3.org/2000/svg">
<path d="M9.63281 13.8527L10.5818 10.311C11.1059 8.35494 9.94513 6.34437 7.98909 5.82025C6.03305 5.29613 4.02248 6.45693 3.49836 8.41297L1.12585 17.2673C0.601729 19.2233 1.76253 21.2339 3.71857 21.758C4.6168 21.9987 5.52652 21.8841 6.29852 21.5003C6.77229 21.2648 7.1942 20.9279 7.52975 20.5096M7.04008 9.36198L6.09108 12.9037C5.56696 14.8597 6.72776 16.8703 8.68381 17.3944C10.6398 17.9186 12.6504 16.7578 13.1745 14.8017L15.547 5.94739C16.0712 3.99135 14.9104 1.98078 12.9543 1.45666C12.0561 1.21598 11.1464 1.3306 10.3744 1.71437C9.9006 1.94988 9.47869 2.28676 9.14314 2.7051" stroke="#191D1E" stroke-width="1.5" stroke-linecap="round"/>
</svg>
