<svg width="22" height="22" viewBox="0 0 22 22" fill="none" xmlns="http://www.w3.org/2000/svg">
<path d="M19.8027 3.60791C19.8027 4.71248 18.9073 5.60791 17.8027 5.60791C16.6982 5.60791 15.8027 4.71248 15.8027 3.60791C15.8027 2.50334 16.6982 1.60791 17.8027 1.60791C18.9073 1.60791 19.8027 2.50334 19.8027 3.60791Z" fill="#31BD1A" stroke="#191D1E" stroke-width="1.5"/>
<path fill-rule="evenodd" clip-rule="evenodd" d="M20.9571 7.30001C20.8154 6.88072 20.2838 6.77654 19.9076 7.00977C19.6159 7.19066 19.4611 7.54976 19.5675 7.87611C20.612 11.0812 19.8609 14.7438 17.3139 17.2907C16.2759 18.3288 14.6268 19.3187 12.7847 19.7593C10.9531 20.1975 8.9864 20.082 7.23974 19.0026L7.1918 18.9729C7.0248 18.8694 6.85988 18.7672 6.71297 18.709C6.44967 18.6047 6.21619 18.5694 5.93384 18.5913C5.77672 18.6034 5.61334 18.646 5.45662 18.6868L5.4154 18.6975C4.77618 18.8632 4.33333 18.9776 3.99294 19.0418C3.64907 19.1066 3.49461 19.102 3.41337 19.0854C2.92189 18.9854 2.53779 18.6013 2.43776 18.1098C2.42123 18.0286 2.41657 17.8741 2.48141 17.5303C2.5456 17.1899 2.65997 16.747 2.82564 16.1078L2.83636 16.0666C2.87723 15.9098 2.91987 15.7462 2.93196 15.5886C2.95365 15.3059 2.91781 15.0707 2.81289 14.8072C2.75426 14.66 2.65189 14.4957 2.54848 14.3298L2.51889 14.2823C1.43299 12.535 1.29824 10.5902 1.72478 8.77531C2.15392 6.94937 3.14374 5.29798 4.23246 4.20926C6.74229 1.69942 10.3356 0.933407 13.5068 1.91121C13.8348 2.01233 14.1914 1.8516 14.3676 1.55708C14.5948 1.17727 14.4821 0.647576 14.0606 0.512606C10.3483 -0.676085 6.11782 0.202581 3.1718 3.1486C1.89212 4.42827 0.759583 6.32586 0.264569 8.43213C-0.233036 10.5494 -0.0937129 12.9201 1.24487 15.0741C1.31416 15.1856 1.35834 15.2568 1.38987 15.3106C1.41072 15.3462 1.419 15.3625 1.42094 15.3663C1.43465 15.4014 1.43669 15.4144 1.437 15.4165C1.43733 15.4186 1.43945 15.4323 1.43648 15.4722C1.43604 15.4753 1.43401 15.4883 1.42725 15.5182C1.41663 15.5652 1.40069 15.627 1.37362 15.7314L1.36676 15.7579C1.20959 16.3643 1.08207 16.8563 1.00739 17.2523C0.932284 17.6506 0.892221 18.0371 0.967895 18.409C1.18794 19.4902 2.03298 20.3352 3.11424 20.5553C3.48608 20.631 3.87261 20.5909 4.2709 20.5158C4.66689 20.4411 5.15878 20.3136 5.76511 20.1565L5.79175 20.1496C5.89614 20.1225 5.95801 20.1066 6.00502 20.0959C6.03487 20.0892 6.04796 20.0871 6.05108 20.0867C6.09256 20.0836 6.10645 20.086 6.10645 20.086C6.10645 20.086 6.12081 20.0881 6.15625 20.1019C6.16019 20.1039 6.17696 20.1123 6.21282 20.1332C6.26709 20.1649 6.33895 20.2092 6.4512 20.2786C8.61435 21.6153 11.0112 21.7259 13.1337 21.2182C15.2456 20.713 17.141 19.585 18.3746 18.3514C21.3637 15.3623 22.2246 11.0508 20.9571 7.30001ZM6.05108 20.0867V20.0867L6.0494 20.0868L6.05108 20.0867Z" fill="#191D1E"/>
<path d="M7.80264 10.6078C7.80264 11.1601 7.35493 11.6078 6.80264 11.6078C6.25036 11.6078 5.80264 11.1601 5.80264 10.6078C5.80264 10.0555 6.25036 9.6078 6.80264 9.6078C7.35493 9.6078 7.80264 10.0555 7.80264 10.6078Z" fill="#191D1E"/>
<path d="M11.8026 10.6078C11.8026 11.1601 11.3549 11.6078 10.8026 11.6078C10.2504 11.6078 9.80264 11.1601 9.80264 10.6078C9.80264 10.0555 10.2504 9.6078 10.8026 9.6078C11.3549 9.6078 11.8026 10.0555 11.8026 10.6078Z" fill="#191D1E"/>
<path d="M15.8026 10.6078C15.8026 11.1601 15.3549 11.6078 14.8026 11.6078C14.2504 11.6078 13.8026 11.1601 13.8026 10.6078C13.8026 10.0555 14.2504 9.6078 14.8026 9.6078C15.3549 9.6078 15.8026 10.0555 15.8026 10.6078Z" fill="#191D1E"/>
</svg>
