<svg width="26" height="24" viewBox="0 0 26 24" fill="none" xmlns="http://www.w3.org/2000/svg">
<path d="M14.2881 14.5219L15.2371 10.9802C15.7612 9.02413 14.6004 7.01356 12.6444 6.48944C10.6883 5.96532 8.67775 7.12612 8.15363 9.08216L5.78112 17.9365C5.257 19.8925 6.4178 21.9031 8.37385 22.4272C9.27207 22.6679 10.1818 22.5533 10.9538 22.1695C11.4276 21.934 11.8495 21.5971 12.185 21.1788M11.6954 10.0312L10.7464 13.5729C10.2222 15.5289 11.383 17.5395 13.3391 18.0636C15.2951 18.5877 17.3057 17.4269 17.8298 15.4709L20.2023 6.61658C20.7264 4.66054 19.5656 2.64997 17.6096 2.12585C16.7114 1.88517 15.8016 1.99979 15.0296 2.38356C14.5559 2.61907 14.134 2.95595 13.7984 3.37429" stroke="#191D1E" stroke-width="1.5" stroke-linecap="round"/>
</svg>
